<svg width="28" height="29" viewBox="0 0 28 29" fill="none" xmlns="http://www.w3.org/2000/svg">
<path d="M10.4997 2.83341C10.4997 2.18908 9.97734 1.66675 9.33301 1.66675C8.68868 1.66675 8.16634 2.18908 8.16634 2.83341V4.35611C7.89413 4.42801 7.63131 4.51533 7.37443 4.62173C5.37336 5.4506 3.78353 7.04044 2.95466 9.0415C2.70497 9.6443 2.55951 10.2831 2.47245 11.0001L25.5269 11.0001C25.4398 10.2831 25.2944 9.6443 25.0447 9.0415C24.2158 7.04044 22.626 5.4506 20.6249 4.62173C20.368 4.51533 20.1052 4.42801 19.833 4.35611V2.83341C19.833 2.18908 19.3107 1.66675 18.6663 1.66675C18.022 1.66675 17.4997 2.18908 17.4997 2.83341V4.04585C16.5607 4.00003 15.4477 4.00005 14.0976 4.00008H13.9017C12.5517 4.00005 11.4386 4.00003 10.4997 4.04585V2.83341Z" fill="#A3A3A3"/>
<path fill-rule="evenodd" clip-rule="evenodd" d="M25.6556 13.3334H2.34373C2.33301 14.0113 2.33301 14.7738 2.33301 15.6361V15.7097C2.333 17.3041 2.333 18.5603 2.40232 19.5763C2.47298 20.6119 2.61954 21.4829 2.95466 22.292C3.78353 24.2931 5.37336 25.8829 7.37443 26.7118C8.18348 27.0469 9.05457 27.1934 10.0902 27.2641C11.1062 27.3334 12.3623 27.3334 13.9567 27.3334H14.0427C15.6371 27.3334 16.8932 27.3334 17.9092 27.2641C18.9448 27.1934 19.8159 27.0469 20.6249 26.7118C22.626 25.8829 24.2158 24.2931 25.0447 22.292C25.3798 21.4829 25.5264 20.6119 25.597 19.5763C25.6664 18.5603 25.6663 17.3041 25.6663 15.7097V15.6365C25.6663 14.7741 25.6663 14.0113 25.6556 13.3334ZM8.04967 16.8334C8.04967 16.1247 8.62424 15.5501 9.33301 15.5501H9.34467C10.0534 15.5501 10.628 16.1247 10.628 16.8334C10.628 17.5422 10.0534 18.1167 9.34467 18.1167H9.33301C8.62424 18.1167 8.04967 17.5422 8.04967 16.8334ZM12.7163 16.8334C12.7163 16.1247 13.2909 15.5501 13.9997 15.5501H14.0113C14.7201 15.5501 15.2947 16.1247 15.2947 16.8334C15.2947 17.5422 14.7201 18.1167 14.0113 18.1167H13.9997C13.2909 18.1167 12.7163 17.5422 12.7163 16.8334ZM17.383 16.8334C17.383 16.1247 17.9576 15.5501 18.6663 15.5501H18.678C19.3868 15.5501 19.9613 16.1247 19.9613 16.8334C19.9613 17.5422 19.3868 18.1167 18.678 18.1167H18.6663C17.9576 18.1167 17.383 17.5422 17.383 16.8334ZM8.04967 21.5001C8.04967 20.7913 8.62424 20.2167 9.33301 20.2167H9.34467C10.0534 20.2167 10.628 20.7913 10.628 21.5001C10.628 22.2088 10.0534 22.7834 9.34467 22.7834H9.33301C8.62424 22.7834 8.04967 22.2088 8.04967 21.5001ZM12.7163 21.5001C12.7163 20.7913 13.2909 20.2167 13.9997 20.2167H14.0113C14.7201 20.2167 15.2947 20.7913 15.2947 21.5001C15.2947 22.2088 14.7201 22.7834 14.0113 22.7834H13.9997C13.2909 22.7834 12.7163 22.2088 12.7163 21.5001ZM17.383 21.5001C17.383 20.7913 17.9576 20.2167 18.6663 20.2167H18.678C19.3868 20.2167 19.9613 20.7913 19.9613 21.5001C19.9613 22.2088 19.3868 22.7834 18.678 22.7834H18.6663C17.9576 22.7834 17.383 22.2088 17.383 21.5001Z" fill="#A3A3A3"/>
</svg>
