<svg width="20" height="20" viewBox="0 0 20 20" fill="none" xmlns="http://www.w3.org/2000/svg">
<path fill-rule="evenodd" clip-rule="evenodd" d="M11.2929 4.29289C11.6834 3.90237 12.3166 3.90237 12.7071 4.29289L17.7071 9.29289C18.0976 9.68342 18.0976 10.3166 17.7071 10.7071L12.7071 15.7071C12.3166 16.0976 11.6834 16.0976 11.2929 15.7071C10.9024 15.3166 10.9024 14.6834 11.2929 14.2929L15.5858 10L11.2929 5.70711C10.9024 5.31658 10.9024 4.68342 11.2929 4.29289Z" fill="#404040"/>
<path fill-rule="evenodd" clip-rule="evenodd" d="M17 10C17 10.5523 16.5523 11 16 11L3 11C2.44771 11 2 10.5523 2 10C2 9.44771 2.44771 9 3 9L16 9C16.5523 9 17 9.44772 17 10Z" fill="#404040"/>
</svg>
