<svg width="24" height="24" viewBox="0 0 24 24" fill="none" xmlns="http://www.w3.org/2000/svg">
<g clip-path="url(#clip0_695_403)">
<path d="M2.83301 5.33301V10.333H7.83301" stroke="#171717" stroke-width="2" stroke-linecap="round" stroke-linejoin="round"/>
<path d="M4.92467 14.5C5.465 16.0337 6.48912 17.3502 7.84272 18.2512C9.19632 19.1522 10.8061 19.5889 12.4294 19.4954C14.0528 19.402 15.6018 18.7835 16.8431 17.7332C18.0844 16.6828 18.9507 15.2575 19.3115 13.672C19.6723 12.0865 19.5081 10.4267 18.8435 8.94262C18.179 7.45857 17.0501 6.2307 15.627 5.44401C14.204 4.65732 12.5638 4.35442 10.9536 4.58097C9.34338 4.80751 7.85044 5.55122 6.69967 6.70004L2.83301 10.3334" stroke="#171717" stroke-width="2" stroke-linecap="round" stroke-linejoin="round"/>
</g>
<defs>
<clipPath id="clip0_695_403">
<rect width="20" height="20" fill="white" transform="translate(2 2)"/>
</clipPath>
</defs>
</svg>
