<svg width="24" height="24" viewBox="0 0 24 24" fill="none" xmlns="http://www.w3.org/2000/svg">
<path d="M10.6353 2.22933C11.5632 1.92616 12.5573 1.92616 13.4852 2.22933C14.0677 2.41965 14.5709 2.7554 15.0915 3.19337C15.5963 3.61803 16.1738 4.18862 16.8885 4.89477L19.4852 7.46022C20.1127 8.07983 20.547 8.50869 20.8644 9.02697C21.1448 9.4849 21.352 9.98762 21.4777 10.5153C21.6199 11.1126 21.6198 11.7373 21.6195 12.64L21.6195 14.6428C21.6195 15.7266 21.6195 16.6008 21.5642 17.3086C21.5073 18.0375 21.387 18.6777 21.0985 19.2699C20.6403 20.2108 19.9091 20.9757 19.0098 21.455C18.478 21.7385 17.9067 21.8664 17.263 21.9303C16.8605 21.9704 16.4037 21.9873 15.8839 21.9945V16C15.8839 13.7909 14.172 12 12.0602 12C9.94844 12 8.23651 13.7909 8.23651 16V21.9945C7.7167 21.9873 7.26002 21.9704 6.8575 21.9303C6.21382 21.8664 5.6425 21.7385 5.11074 21.455C4.21139 20.9757 3.4802 20.2108 3.02197 19.2699C2.73348 18.6777 2.61321 18.0375 2.55629 17.3086C2.501 16.6007 2.50101 15.7266 2.50102 14.6428L2.501 12.6401C2.50074 11.7374 2.50056 11.1126 2.64281 10.5153C2.7685 9.98762 2.97565 9.4849 3.25609 9.02697C3.57349 8.50869 4.00781 8.07984 4.63534 7.46022L7.23199 4.89478C7.94672 4.18862 8.52423 3.61803 9.02903 3.19337C9.54964 2.7554 10.0528 2.41965 10.6353 2.22933Z" fill="white"/>
<path d="M13.972 22.0005C12.6975 22.0012 11.4229 22.0012 10.1484 22.0005V16C10.1484 14.8954 11.0043 14 12.0602 14C13.1161 14 13.972 14.8954 13.972 16V22.0005Z" fill="white"/>
</svg>
