<svg width="27" height="27" viewBox="0 0 27 27" fill="none" xmlns="http://www.w3.org/2000/svg">
<path d="M11.4876 0.30697C12.798 -0.102323 14.202 -0.102323 15.5124 0.30697C16.335 0.563913 17.0456 1.0172 17.7808 1.60848C18.4937 2.1818 19.3093 2.95212 20.3187 3.90548L23.9858 7.36899C24.872 8.2055 25.4854 8.78449 25.9336 9.48419C26.3296 10.1024 26.6222 10.7811 26.7997 11.4936C27.0006 12.2999 27.0003 13.1434 27 14.362L26.9999 17.0659C27 18.529 27 19.7093 26.9219 20.6649C26.8415 21.6489 26.6716 22.5132 26.2642 23.3128C25.6171 24.583 24.5845 25.6156 23.3144 26.2628C22.5634 26.6455 21.7566 26.8182 20.8475 26.9045C20.2791 26.9585 19.6341 26.9814 18.8999 26.9912V18.8982C18.8999 15.9157 16.4823 13.498 13.4999 13.498C10.5176 13.498 8.09996 15.9157 8.09996 18.8982V26.9912C7.36587 26.9814 6.72091 26.9585 6.15246 26.9045C5.24343 26.8182 4.43658 26.6455 3.68561 26.2628C2.41552 25.6156 1.38291 24.583 0.735765 23.3128C0.328354 22.5132 0.158507 21.6489 0.0781162 20.6649C3.78391e-05 19.7092 4.86246e-05 18.5291 6.21429e-05 17.0659L3.06002e-05 14.3621C-0.000335198 13.1434 -0.000588347 12.2999 0.200308 11.4936C0.377811 10.7811 0.670351 10.1024 1.0664 9.48419C1.51465 8.78448 2.12801 8.20551 3.01423 7.36899L6.68133 3.90549C7.69071 2.95213 8.50629 2.1818 9.21919 1.60848C9.95442 1.0172 10.665 0.563913 11.4876 0.30697Z" fill="#A3A3A3"/>
<path d="M16.1999 26.9993C14.3999 27.0002 12.5999 27.0002 10.8 26.9993V18.8982C10.8 17.407 12.0088 16.1981 13.4999 16.1981C14.9911 16.1981 16.1999 17.407 16.1999 18.8982V26.9993Z" fill="#A3A3A3"/>
</svg>
