<svg width="24" height="24" viewBox="0 0 24 24" fill="none" xmlns="http://www.w3.org/2000/svg">
<path d="M20 10.7318C20 17.4 12 21 12 21C12 21 4 17.4 4 10.7318C4 8.68121 4.84285 6.71459 6.34315 5.2646C7.84344 3.8146 9.87827 3 12 3C14.1217 3 16.1566 3.8146 17.6569 5.2646C19.1571 6.71459 20 8.68121 20 10.7318Z" stroke="#797979" stroke-width="2" stroke-linecap="round" stroke-linejoin="round"/>
<path d="M12 14C13.6569 14 15 12.6569 15 11C15 9.34315 13.6569 8 12 8C10.3431 8 9 9.34315 9 11C9 12.6569 10.3431 14 12 14Z" stroke="#797979" stroke-width="2" stroke-linecap="round" stroke-linejoin="round"/>
</svg>
