<svg width="28" height="29" viewBox="0 0 28 29" fill="none" xmlns="http://www.w3.org/2000/svg">
<path fill-rule="evenodd" clip-rule="evenodd" d="M13.7544 2.83325C11.8152 2.83325 9.27501 3.50545 7.19717 5.1926C5.07568 6.91517 3.5 9.64734 3.5 13.5925C3.5 17.5714 5.38372 20.8421 7.51161 23.0882C8.57845 24.2143 9.72925 25.1082 10.7858 25.7278C11.7957 26.3201 12.8691 26.7499 13.7544 26.7499C14.6397 26.7499 15.713 26.3201 16.723 25.7278C17.7795 25.1082 18.9303 24.2143 19.9972 23.0882C22.125 20.8421 24.0088 17.5714 24.0088 13.5925C24.0088 9.64734 22.4331 6.91517 20.3116 5.1926C18.2338 3.50545 15.6935 2.83325 13.7544 2.83325ZM9.76343 13.0876C9.76343 10.8833 11.5504 9.09639 13.7547 9.09639C15.9589 9.09639 17.7459 10.8833 17.7459 13.0876C17.7459 15.2919 15.9589 17.0789 13.7547 17.0789C11.5504 17.0789 9.76343 15.2919 9.76343 13.0876Z" fill="#A3A3A3"/>
</svg>
