<svg width="22" height="23" viewBox="0 0 22 23" fill="none" xmlns="http://www.w3.org/2000/svg">
<path fill-rule="evenodd" clip-rule="evenodd" d="M10.807 2.33325C9.28341 2.33325 7.28751 2.86141 5.65492 4.18702C3.98804 5.54047 2.75 7.68718 2.75 10.787C2.75 13.9132 4.23007 16.483 5.90198 18.2478C6.74021 19.1326 7.64441 19.835 8.47455 20.3218C9.26808 20.7872 10.1114 21.1249 10.807 21.1249C11.5026 21.1249 12.346 20.7872 13.1395 20.3218C13.9696 19.835 14.8738 19.1326 15.7121 18.2478C17.384 16.483 18.864 13.9132 18.864 10.787C18.864 7.68718 17.626 5.54047 15.9591 4.18702C14.3265 2.86141 12.3306 2.33325 10.807 2.33325ZM7.67126 10.3903C7.67126 8.65831 9.07528 7.25429 10.8072 7.25429C12.5392 7.25429 13.9432 8.65831 13.9432 10.3903C13.9432 12.1222 12.5392 13.5262 10.8072 13.5262C9.07528 13.5262 7.67126 12.1222 7.67126 10.3903Z" fill="white"/>
</svg>
