<svg width="24" height="25" viewBox="0 0 24 25" fill="none" xmlns="http://www.w3.org/2000/svg">
<path d="M20 11.2318C20 17.9 12 21.5 12 21.5C12 21.5 4 17.9 4 11.2318C4 9.18121 4.84285 7.21459 6.34315 5.7646C7.84344 4.3146 9.87827 3.5 12 3.5C14.1217 3.5 16.1566 4.3146 17.6569 5.7646C19.1571 7.21459 20 9.18121 20 11.2318Z" stroke="white" stroke-width="2" stroke-linecap="round" stroke-linejoin="round"/>
<path d="M12 14.5C13.6569 14.5 15 13.1569 15 11.5C15 9.84315 13.6569 8.5 12 8.5C10.3431 8.5 9 9.84315 9 11.5C9 13.1569 10.3431 14.5 12 14.5Z" stroke="white" stroke-width="2" stroke-linecap="round" stroke-linejoin="round"/>
</svg>
