<svg width="44" height="51" viewBox="0 0 44 51" fill="none" xmlns="http://www.w3.org/2000/svg">
<path fill-rule="evenodd" clip-rule="evenodd" d="M26.568 43.5251C36.526 41.4223 44 32.584 44 22C44 9.84974 34.1503 0 22 0C9.84974 0 0 9.84974 0 22C0 32.7489 7.70863 41.6973 17.8992 43.6185L22 51L26.568 43.5251Z" fill="#4F118C"/>
<g clip-path="url(#clip0_1468_2700)">
<path d="M26.543 9L17.7533 11.444C17.5218 11.5105 17.3564 11.7183 17.3564 11.9677V32.6499H13.9993V9H26.543Z" fill="white"/>
<path d="M30 9.15796V32.783L28.5199 33.1903L26.5437 33.7389L18.432 35.9917V12.375L29.9917 9.16627H30V9.15796ZM20.7307 21.835C20.7307 21.5274 20.4827 21.2863 20.185 21.2863C19.8873 21.2863 19.6393 21.5357 19.6393 21.835V25.2183C19.6393 25.5259 19.8873 25.7669 20.185 25.7669C20.4827 25.7669 20.7307 25.5176 20.7307 25.2183V21.835Z" fill="white"/>
</g>
<defs>
<clipPath id="clip0_1468_2700">
<rect width="16" height="27" fill="white" transform="matrix(-1 0 0 1 30 9)"/>
</clipPath>
</defs>
</svg>
