<svg width="28" height="29" viewBox="0 0 28 29" fill="none" xmlns="http://www.w3.org/2000/svg">
<mask id="path-1-inside-1_421_430" fill="white">
<path d="M20.9091 25.6701V22.433C20.9091 20.7159 20.411 19.0692 19.5245 17.855C18.638 16.6408 17.4356 15.9587 16.1818 15.9587H6.72727C5.47352 15.9587 4.27112 16.6408 3.38459 17.855C2.49805 19.0692 2 20.7159 2 22.433V25.6701"/>
</mask>
<path d="M20.9091 25.6701V22.433C20.9091 20.7159 20.411 19.0692 19.5245 17.855C18.638 16.6408 17.4356 15.9587 16.1818 15.9587H6.72727C5.47352 15.9587 4.27112 16.6408 3.38459 17.855C2.49805 19.0692 2 20.7159 2 22.433V25.6701" fill="#A3A3A3"/>
<path d="M20.9091 26.6701C21.4614 26.6701 21.9091 26.2224 21.9091 25.6701C21.9091 25.1178 21.4614 24.6701 20.9091 24.6701V26.6701ZM2 24.6701C1.44772 24.6701 1 25.1178 1 25.6701C1 26.2224 1.44772 26.6701 2 26.6701V24.6701ZM2 26.6701H20.9091V24.6701H2V26.6701ZM18.9091 25.6701C18.9091 26.7747 19.8045 27.6701 20.9091 27.6701C22.0137 27.6701 22.9091 26.7747 22.9091 25.6701H18.9091ZM16.1818 15.9587V13.9587V15.9587ZM6.72727 15.9587V13.9587V15.9587ZM2 22.433H0H2ZM0 25.6701C0 26.7747 0.89543 27.6701 2 27.6701C3.10457 27.6701 4 26.7747 4 25.6701H0ZM22.9091 25.6701V22.433H18.9091V25.6701H22.9091ZM22.9091 22.433C22.9091 20.3546 22.3109 18.2796 21.1397 16.6756L17.9093 19.0344C18.5112 19.8587 18.9091 21.0772 18.9091 22.433H22.9091ZM21.1397 16.6756C19.9614 15.0618 18.2053 13.9587 16.1818 13.9587L16.1818 17.9587C16.6658 17.9587 17.3146 18.2199 17.9093 19.0344L21.1397 16.6756ZM16.1818 13.9587H6.72727V17.9587H16.1818V13.9587ZM6.72727 13.9587C4.70377 13.9587 2.94771 15.0618 1.76934 16.6756L4.99983 19.0344C5.59453 18.2199 6.24328 17.9587 6.72727 17.9587V13.9587ZM1.76934 16.6756C0.598174 18.2796 0 20.3546 0 22.433H4C4 21.0772 4.39793 19.8587 4.99983 19.0344L1.76934 16.6756ZM0 22.433V25.6701H4V22.433H0Z" fill="#A3A3A3" mask="url(#path-1-inside-1_421_430)"/>
<path d="M15.1811 8.67525C15.1811 10.8301 13.4873 12.5309 11.4538 12.5309C9.42041 12.5309 7.72656 10.8301 7.72656 8.67525C7.72656 6.52039 9.42041 4.81958 11.4538 4.81958C13.4873 4.81958 15.1811 6.52039 15.1811 8.67525Z" fill="#A3A3A3" stroke="#A3A3A3" stroke-width="2" stroke-linecap="round" stroke-linejoin="round"/>
<mask id="path-4-inside-2_421_430" fill="white">
<path d="M27.9999 25.6701V22.433C27.9999 20.7159 27.5019 19.0692 26.6153 17.855C25.7288 16.6408 24.5264 15.9587 23.2726 15.9587H13.8181C12.5643 15.9587 11.3619 16.6408 10.4754 17.855C9.58887 19.0692 9.09082 20.7159 9.09082 22.433V25.6701"/>
</mask>
<path d="M27.9999 25.6701V22.433C27.9999 20.7159 27.5019 19.0692 26.6153 17.855C25.7288 16.6408 24.5264 15.9587 23.2726 15.9587H13.8181C12.5643 15.9587 11.3619 16.6408 10.4754 17.855C9.58887 19.0692 9.09082 20.7159 9.09082 22.433V25.6701" fill="#A3A3A3"/>
<path d="M27.9999 26.6701C28.5522 26.6701 28.9999 26.2224 28.9999 25.6701C28.9999 25.1178 28.5522 24.6701 27.9999 24.6701V26.6701ZM9.09082 24.6701C8.53854 24.6701 8.09082 25.1178 8.09082 25.6701C8.09082 26.2224 8.53854 26.6701 9.09082 26.6701V24.6701ZM9.09082 26.6701H27.9999V24.6701H9.09082V26.6701ZM25.9999 25.6701C25.9999 26.7747 26.8953 27.6701 27.9999 27.6701C29.1045 27.6701 29.9999 26.7747 29.9999 25.6701H25.9999ZM23.2726 15.9587V13.9587V15.9587ZM13.8181 15.9587V13.9587V15.9587ZM9.09082 22.433H7.09082H9.09082ZM7.09082 25.6701C7.09082 26.7747 7.98625 27.6701 9.09082 27.6701C10.1954 27.6701 11.0908 26.7747 11.0908 25.6701H7.09082ZM29.9999 25.6701V22.433H25.9999V25.6701H29.9999ZM29.9999 22.433C29.9999 20.3546 29.4017 18.2796 28.2306 16.6756L25.0001 19.0344C25.602 19.8587 25.9999 21.0772 25.9999 22.433H29.9999ZM28.2306 16.6756C27.0522 15.0618 25.2961 13.9587 23.2726 13.9587L23.2726 17.9587C23.7566 17.9587 24.4054 18.2199 25.0001 19.0344L28.2306 16.6756ZM23.2726 13.9587H13.8181V17.9587H23.2726V13.9587ZM13.8181 13.9587C11.7946 13.9587 10.0385 15.0618 8.86016 16.6756L12.0907 19.0344C12.6853 18.2199 13.3341 17.9587 13.8181 17.9587V13.9587ZM8.86016 16.6756C7.68899 18.2796 7.09082 20.3546 7.09082 22.433H11.0908C11.0908 21.0772 11.4887 19.8587 12.0907 19.0344L8.86016 16.6756ZM7.09082 22.433V25.6701H11.0908V22.433H7.09082Z" fill="#A3A3A3" mask="url(#path-4-inside-2_421_430)"/>
<path d="M22.2729 8.67525C22.2729 10.8301 20.5791 12.5309 18.5456 12.5309C16.5122 12.5309 14.8184 10.8301 14.8184 8.67525C14.8184 6.52039 16.5122 4.81958 18.5456 4.81958C20.5791 4.81958 22.2729 6.52039 22.2729 8.67525Z" fill="#A3A3A3" stroke="#A3A3A3" stroke-width="2" stroke-linecap="round" stroke-linejoin="round"/>
<mask id="path-7-outside-3_421_430" maskUnits="userSpaceOnUse" x="0" y="13.9587" width="22" height="14" fill="black">
<rect fill="white" y="13.9587" width="22" height="14"/>
<path d="M19.7273 25.6701V22.433C19.7273 20.7159 19.2603 19.0692 18.4292 17.855C17.5981 16.6408 16.4708 15.9587 15.2955 15.9587H6.43182C5.25643 15.9587 4.12918 16.6408 3.29805 17.855C2.46692 19.0692 2 20.7159 2 22.433V25.6701"/>
</mask>
<path d="M19.7273 25.6701V22.433C19.7273 20.7159 19.2603 19.0692 18.4292 17.855C17.5981 16.6408 16.4708 15.9587 15.2955 15.9587H6.43182C5.25643 15.9587 4.12918 16.6408 3.29805 17.855C2.46692 19.0692 2 20.7159 2 22.433V25.6701" fill="#A3A3A3"/>
<path d="M19.7273 26.4201C20.1415 26.4201 20.4773 26.0843 20.4773 25.6701C20.4773 25.2559 20.1415 24.9201 19.7273 24.9201V26.4201ZM2 24.9201C1.58579 24.9201 1.25 25.2559 1.25 25.6701C1.25 26.0843 1.58579 26.4201 2 26.4201V24.9201ZM2 26.4201H19.7273V24.9201H2V26.4201ZM18.2273 25.6701C18.2273 26.4985 18.8988 27.1701 19.7273 27.1701C20.5557 27.1701 21.2273 26.4985 21.2273 25.6701H18.2273ZM15.2955 15.9587V14.4587V15.9587ZM6.43182 15.9587V14.4587V15.9587ZM2 22.433H0.5H2ZM0.5 25.6701C0.5 26.4985 1.17157 27.1701 2 27.1701C2.82843 27.1701 3.5 26.4985 3.5 25.6701H0.5ZM21.2273 25.6701V22.433H18.2273V25.6701H21.2273ZM21.2273 22.433C21.2273 20.4653 20.6961 18.511 19.667 17.0077L17.1914 18.7023C17.8246 19.6273 18.2273 20.9665 18.2273 22.433H21.2273ZM19.667 17.0077C18.6356 15.501 17.0915 14.4587 15.2955 14.4587V17.4587C15.8502 17.4587 16.5606 17.7807 17.1914 18.7023L19.667 17.0077ZM15.2955 14.4587H6.43182V17.4587H15.2955V14.4587ZM6.43182 14.4587C4.63575 14.4587 3.09163 15.501 2.06027 17.0077L4.53583 18.7023C5.16672 17.7807 5.87711 17.4587 6.43182 17.4587V14.4587ZM2.06027 17.0077C1.03122 18.511 0.5 20.4653 0.5 22.433H3.5C3.5 20.9665 3.90263 19.6273 4.53583 18.7023L2.06027 17.0077ZM0.5 22.433V25.6701H3.5V22.433H0.5Z" fill="white" mask="url(#path-7-outside-3_421_430)"/>
<path d="M11.4538 14.2809C14.4977 14.2809 16.9311 11.7521 16.9311 8.67525C16.9311 5.5984 14.4977 3.06958 11.4538 3.06958C8.41 3.06958 5.97656 5.5984 5.97656 8.67525C5.97656 11.7521 8.41 14.2809 11.4538 14.2809Z" stroke="white" stroke-width="1.5" stroke-linecap="round" stroke-linejoin="round"/>
</svg>
