<svg width="24" height="24" viewBox="0 0 24 24" fill="none" xmlns="http://www.w3.org/2000/svg">
<circle cx="12" cy="12" r="9" stroke="#797979" stroke-width="2"/>
<path fill-rule="evenodd" clip-rule="evenodd" d="M12.5229 10.1623C12.4695 9.97547 12.3264 9.81806 12.1273 9.75485C12.067 9.73568 12.0058 9.72657 11.9457 9.72656C11.8888 9.72656 11.8328 9.73471 11.7793 9.75022C11.7742 9.75169 11.7691 9.75323 11.764 9.75485C11.5649 9.81806 11.4219 9.97547 11.3685 10.1623L10.4212 13.1463L9.2145 10.1054C9.09227 9.79741 8.7435 9.6468 8.43549 9.76903C8.12749 9.89125 7.97688 10.24 8.09911 10.548L9.92633 15.1526C10.0199 15.3884 10.2516 15.5399 10.5051 15.5309C10.7586 15.522 10.9791 15.3546 11.0559 15.1129L11.9457 12.31L12.8355 15.1129C12.9122 15.3546 13.1327 15.522 13.3863 15.5309C13.6398 15.5399 13.8715 15.3884 13.9651 15.1526L15.7923 10.548C15.9145 10.24 15.7639 9.89125 15.4559 9.76903C15.1479 9.6468 14.7991 9.79741 14.6769 10.1054L13.4702 13.1463L12.5229 10.1623Z" fill="#797979"/>
<path d="M8 12.0962H16" stroke="#797979" stroke-width="1.2" stroke-linecap="round" stroke-linejoin="round"/>
</svg>
