<svg width="24" height="24" viewBox="0 0 24 24" fill="none" xmlns="http://www.w3.org/2000/svg">
<circle cx="12" cy="12" r="12" fill="#A3A3A3"/>
<path fill-rule="evenodd" clip-rule="evenodd" d="M12.4848 8.43937C12.4322 8.25094 12.2886 8.0919 12.0882 8.02829C12.0278 8.00912 11.9667 8 11.9065 8C11.8464 8 11.7852 8.00912 11.7248 8.02829C11.5244 8.0919 11.3808 8.25094 11.3282 8.43938L9.28574 14.8732L6.70864 8.37885C6.58641 8.07085 6.23764 7.92024 5.92963 8.04247C5.62163 8.16469 5.47102 8.51346 5.59325 8.82147L8.79088 16.8795C8.88444 17.1153 9.11617 17.2668 9.36968 17.2578C9.62319 17.2489 9.8437 17.0815 9.92045 16.8397L11.9065 10.5836L13.8926 16.8397C13.9693 17.0815 14.1898 17.2489 14.4433 17.2578C14.6969 17.2668 14.9286 17.1153 15.0221 16.8795L18.2198 8.82147C18.342 8.51346 18.1914 8.16469 17.8834 8.04247C17.5754 7.92024 17.2266 8.07085 17.1044 8.37885L14.5273 14.8732L12.4848 8.43937Z" fill="white"/>
<path d="M5 11.696H19" stroke="white" stroke-width="1.2" stroke-linecap="round" stroke-linejoin="round"/>
</svg>
