<svg width="42" height="42" viewBox="0 0 42 42" fill="none" xmlns="http://www.w3.org/2000/svg">
<rect width="42" height="42" rx="21" fill="#A3A3A3"/>
<path d="M15.328 27.694V16.158L14.656 15.71V15.206H17.12C17.2507 15.206 17.3533 15.2433 17.428 15.318C17.5027 15.3927 17.54 15.4953 17.54 15.626V27.694H15.328ZM5.78 24.096C6.34 23.62 6.83933 23.1207 7.278 22.598C7.726 22.066 8.10867 21.5013 8.426 20.904C8.75267 20.2973 9.00467 19.6533 9.182 18.972C9.36867 18.2813 9.476 17.5393 9.504 16.746L8.888 16.354V15.85H11.324C11.4547 15.85 11.562 15.8873 11.646 15.962C11.73 16.0367 11.772 16.1393 11.772 16.27C11.772 16.9047 11.73 17.5067 11.646 18.076C11.5713 18.636 11.4547 19.1727 11.296 19.686C11.52 20.3953 11.898 21.0953 12.43 21.786C12.962 22.4767 13.648 23.1113 14.488 23.69L13.144 25.202C12.584 24.782 12.052 24.32 11.548 23.816C11.0533 23.3027 10.6147 22.7287 10.232 22.094C9.84 22.7473 9.39667 23.3493 8.902 23.9C8.41667 24.4507 7.894 24.9687 7.334 25.454L5.78 24.096ZM22.2155 18.468L20.6195 21.03L19.0235 18.468H22.2155ZM19.0235 26.756L20.6195 24.194L22.2155 26.756H19.0235ZM33.3353 22.738C33.4659 22.738 33.5686 22.7753 33.6433 22.85C33.7179 22.9247 33.7553 23.0273 33.7553 23.158V27.834H31.5433V24.53H24.6413V22.738H30.7873C30.9273 22.738 31.0486 22.7053 31.1513 22.64C31.2539 22.5653 31.3333 22.472 31.3893 22.36C31.4546 22.248 31.5013 22.122 31.5293 21.982C31.5573 21.8327 31.5713 21.6833 31.5713 21.534V16.158L30.8993 15.71V15.206H33.3633C33.4939 15.206 33.5966 15.2433 33.6713 15.318C33.7459 15.3927 33.7833 15.4953 33.7833 15.626V17.782H35.5333V19.658H33.7833V20.904C33.7833 21.296 33.7086 21.6647 33.5593 22.01C33.4099 22.3553 33.1906 22.598 32.9013 22.738H33.3353ZM22.5833 20.68C23.2086 20.512 23.7826 20.302 24.3053 20.05C24.8279 19.7887 25.2899 19.5133 25.6913 19.224C26.0926 18.9253 26.4193 18.6173 26.6713 18.3C26.9326 17.9827 27.1099 17.6793 27.2033 17.39H23.2833V15.654H29.1913C29.3219 15.654 29.4246 15.6913 29.4993 15.766C29.5739 15.8407 29.6113 15.9433 29.6113 16.074C29.6019 16.5873 29.5179 17.0727 29.3593 17.53C29.2099 17.9873 28.9999 18.4213 28.7293 18.832C28.8413 18.9813 28.9859 19.1307 29.1633 19.28C29.3406 19.4293 29.5413 19.574 29.7653 19.714C29.9986 19.854 30.2459 19.9847 30.5073 20.106C30.7779 20.2273 31.0486 20.3347 31.3193 20.428L30.1993 21.968C29.7326 21.8 29.2566 21.5713 28.7713 21.282C28.2859 20.9927 27.8519 20.6427 27.4693 20.232C26.9279 20.708 26.3353 21.114 25.6913 21.45C25.0473 21.7767 24.3939 22.0427 23.7313 22.248L22.5833 20.68Z" fill="#3E3E3E"/>
</svg>
