<svg width="94" height="70" viewBox="0 0 94 70" fill="none" xmlns="http://www.w3.org/2000/svg">
<path d="M32.868 51.114V23.098L31.236 22.01V20.786H37.22C37.5373 20.786 37.7867 20.8767 37.968 21.058C38.1493 21.2393 38.24 21.4887 38.24 21.806V51.114H32.868ZM9.68 42.376C11.04 41.22 12.2527 40.0073 13.318 38.738C14.406 37.446 15.3353 36.0747 16.106 34.624C16.8993 33.1507 17.5113 31.5867 17.942 29.932C18.3953 28.2547 18.656 26.4527 18.724 24.526L17.228 23.574V22.35H23.144C23.4613 22.35 23.722 22.4407 23.926 22.622C24.13 22.8033 24.232 23.0527 24.232 23.37C24.232 24.9113 24.13 26.3733 23.926 27.756C23.7447 29.116 23.4613 30.4193 23.076 31.666C23.62 33.3887 24.538 35.0887 25.83 36.766C27.122 38.4433 28.788 39.9847 30.828 41.39L27.564 45.062C26.204 44.042 24.912 42.92 23.688 41.696C22.4867 40.4493 21.4213 39.0553 20.492 37.514C19.54 39.1007 18.4633 40.5627 17.262 41.9C16.0833 43.2373 14.814 44.4953 13.454 45.674L9.68 42.376Z" fill="#4F118C"/>
<path d="M50.2747 28.708L46.3987 34.93L42.5227 28.708H50.2747ZM42.5227 48.836L46.3987 42.614L50.2747 48.836H42.5227ZM77.96 39.078C78.2773 39.078 78.5266 39.1687 78.708 39.35C78.8893 39.5313 78.98 39.7807 78.98 40.098V51.454H73.608V43.43H56.846V39.078H71.772C72.112 39.078 72.4066 38.9987 72.656 38.84C72.9053 38.6587 73.098 38.432 73.234 38.16C73.3926 37.888 73.506 37.582 73.574 37.242C73.642 36.8793 73.676 36.5167 73.676 36.154V23.098L72.044 22.01V20.786H78.028C78.3453 20.786 78.5946 20.8767 78.776 21.058C78.9573 21.2393 79.048 21.4887 79.048 21.806V27.042H83.298V31.598H79.048V34.624C79.048 35.576 78.8666 36.4713 78.504 37.31C78.1413 38.1487 77.6086 38.738 76.906 39.078H77.96ZM51.848 34.08C53.3666 33.672 54.7606 33.162 56.03 32.55C57.2993 31.9153 58.4213 31.2467 59.396 30.544C60.3706 29.8187 61.164 29.0707 61.776 28.3C62.4106 27.5293 62.8413 26.7927 63.068 26.09H53.548V21.874H67.896C68.2133 21.874 68.4626 21.9647 68.644 22.146C68.8253 22.3273 68.916 22.5767 68.916 22.894C68.8933 24.1407 68.6893 25.3193 68.304 26.43C67.9413 27.5407 67.4313 28.5947 66.774 29.592C67.046 29.9547 67.3973 30.3173 67.828 30.68C68.2586 31.0427 68.746 31.394 69.29 31.734C69.8566 32.074 70.4573 32.3913 71.092 32.686C71.7493 32.9807 72.4066 33.2413 73.064 33.468L70.344 37.208C69.2106 36.8 68.0546 36.2447 66.876 35.542C65.6973 34.8393 64.6433 33.9893 63.714 32.992C62.3993 34.148 60.96 35.134 59.396 35.95C57.832 36.7433 56.2453 37.3893 54.636 37.888L51.848 34.08Z" fill="#FF501A"/>
</svg>
