<svg width="24" height="25" viewBox="0 0 24 25" fill="none" xmlns="http://www.w3.org/2000/svg">
<path fill-rule="evenodd" clip-rule="evenodd" d="M0 12.5C0 5.87258 5.37258 0.5 12 0.5C18.6274 0.5 24 5.87258 24 12.5C24 19.1274 18.6274 24.5 12 24.5C5.37258 24.5 0 19.1274 0 12.5ZM13.1822 7.65274C13.1822 6.99979 12.6528 6.47047 11.9999 6.47047C11.3469 6.47047 10.8176 6.99979 10.8176 7.65274V13.4653C10.8176 14.0716 11.1274 14.6359 11.6389 14.9614L14.9636 17.0772C15.5145 17.4277 16.2452 17.2653 16.5958 16.7144C16.9464 16.1636 16.784 15.4328 16.2331 15.0823L13.1822 13.1408V7.65274Z" fill="#A3A3A3"/>
</svg>
