<svg width="28" height="29" viewBox="0 0 28 29" fill="none" xmlns="http://www.w3.org/2000/svg">
<path fill-rule="evenodd" clip-rule="evenodd" d="M0.583008 14.4999C0.583008 7.0901 6.58985 1.08325 13.9997 1.08325C21.4095 1.08325 27.4163 7.0901 27.4163 14.4999C27.4163 18.2564 25.8703 21.6549 23.3842 24.0883C20.9666 26.4548 17.6521 27.9166 13.9997 27.9166C10.3473 27.9166 7.03278 26.4548 4.61516 24.0883C2.1291 21.6549 0.583008 18.2564 0.583008 14.4999ZM9.91632 17.9999C8.00944 17.9999 6.30254 18.9909 5.3826 20.5015C5.75948 21.0415 6.18591 21.5445 6.65539 22.004C8.55002 23.8586 11.1404 24.9999 13.9997 24.9999C16.859 24.9999 19.4493 23.8586 21.344 22.004C21.8134 21.5445 22.2399 21.0415 22.6167 20.5015C21.6968 18.9909 19.9899 17.9999 18.083 17.9999H9.91632ZM9.91634 12.1666C9.91634 9.91142 11.7445 8.08325 13.9997 8.08325C16.2548 8.08325 18.083 9.91142 18.083 12.1666C18.083 14.4217 16.2548 16.2499 13.9997 16.2499C11.7445 16.2499 9.91634 14.4217 9.91634 12.1666Z" fill="#A3A3A3"/>
</svg>
